# xmcd CD database file generated by Grip 3.2.0
# 
# Track frame offsets:
#       150
#       35173
#       79736
#       118401
#       141661
#       177020
#       203099
#       224891
#       254410
# 
# Disc length: 3676 seconds
# 
# Revision: 4
# Processed by: cddbd v1.5.2PL0 Copyright (c) Steve Scherf et al.
# Submitted via: Grip 3.2.0
# 
DISCID=940e5a09
DTITLE=P.J. Perry - P.J. Perry and The Edmonton Symphony Orchestra
DYEAR=1999
DGENRE=Jazz
TTITLE0=Django
TTITLE1=Charlie Parker Medley The Song Is You, April In Paris, They Can't Take
TTITLE1=That Away From Me
TTITLE2=Bossa Nova Medley: Corcovada, Girl from Impanema, Kirasamba, One-Note 
TTITLE2=Samba
TTITLE3=They Kept Bach's Head Alive
TTITLE4=Ballad Medley: A Song For Ruth, Sophisticated Lady, Dear Old Stockholm
TTITLE5=Hand In Hand
TTITLE6=Harlem Nocturne
TTITLE7=The Old Castle
TTITLE8=Strike Up The Band
EXTD=YEAR: 1999
EXTT0=
EXTT1=
EXTT2=
EXTT3=
EXTT4=
EXTT5=
EXTT6=
EXTT7=
EXTT8=
PLAYORDER=
